<svg width="40" height="40" viewBox="0 0 40 40" fill="none" xmlns="http://www.w3.org/2000/svg">
<path fill-rule="evenodd" clip-rule="evenodd" d="M9.50631 19.1945C15.4107 16.5216 19.3413 14.7456 21.315 13.8839C26.9326 11.4396 28.1135 11.0176 28.8726 11C29.0413 11 29.4125 11.0352 29.6655 11.2462C29.8679 11.422 29.9185 11.6506 29.9523 11.8265C29.986 12.0023 30.0198 12.3716 29.986 12.653C29.6824 15.9941 28.3665 24.1007 27.6918 27.8287C27.405 29.4113 26.8483 29.9389 26.3084 29.9916C25.1276 30.0972 24.2335 29.1827 23.1032 28.409C21.315 27.1957 20.3197 26.4395 18.5822 25.2437C16.5747 23.8721 17.8736 23.116 19.0208 21.885C19.3244 21.5685 24.5034 16.6447 24.6046 16.2051C24.6215 16.1524 24.6215 15.9413 24.5034 15.8358C24.3853 15.7303 24.2166 15.7655 24.0817 15.8007C23.8961 15.8358 21.062 17.8053 15.5456 21.6916C14.7359 22.2719 14.0105 22.5533 13.3526 22.5357C12.6272 22.5181 11.2439 22.1136 10.198 21.7619C8.93274 21.3399 7.92057 21.1113 8.00492 20.3727C8.05552 19.9859 8.56161 19.599 9.50631 19.1945Z" stroke="black" stroke-width="2"/>
</svg>
