<svg width="40" height="40" viewBox="0 0 40 40" fill="none" xmlns="http://www.w3.org/2000/svg">
<path d="M31.3401 13.9364C31.506 13.3967 31.3401 13 30.5497 13H27.9364C27.2743 13 26.9678 13.3401 26.8012 13.7162C26.8 13.719 26.7997 13.7196 26.7985 13.7225C26.76 13.8133 25.4427 16.9087 23.5877 18.9296C22.9786 19.5234 22.7018 19.7123 22.3695 19.7123C22.2033 19.7123 21.9629 19.5234 21.9629 18.9837V13.9364C21.9629 13.2886 21.7701 13 21.2162 13H17.1095C16.6942 13 16.4444 13.3006 16.4444 13.5856C16.4444 14.1996 17.3858 14.3413 17.4828 16.0686V19.8204C17.4828 20.6429 17.3305 20.7921 16.9982 20.7921C16.1123 20.7921 13.9572 17.6199 12.6791 13.9905C12.4286 13.285 12.1773 13 11.5094 13H8.89602C8.14934 13 8 13.3427 8 13.7204C8 14.3952 8.88594 17.7421 12.1252 22.1686C14.2848 25.1913 17.3275 26.83 20.0962 26.83C21.7574 26.83 21.9629 26.4661 21.9629 25.8392V23.5545C21.9629 22.8266 22.1203 22.6814 22.6463 22.6814C23.0338 22.6814 23.6984 22.8703 25.2489 24.3277C27.0209 26.0552 27.3131 26.83 28.3097 26.83H30.9231C31.6698 26.83 32.0431 26.4661 31.8277 25.7478C31.5921 25.0319 30.7459 23.9934 29.6235 22.7623C29.0144 22.0605 28.1006 21.3049 27.8238 20.927C27.4405 20.4467 27.5445 20.2301 27.8143 19.808C27.8206 19.7983 27.8269 19.789 27.8337 19.7797C28.0276 19.5123 31.0186 15.3728 31.3401 13.9364" stroke="black" stroke-width="2"/>
</svg>
