<svg width="40" height="40" viewBox="0 0 40 40" fill="none" xmlns="http://www.w3.org/2000/svg">
<path d="M31.5116 14.0615C31.375 13.5628 31.1081 13.108 30.7374 12.7424C30.3667 12.3768 29.9052 12.113 29.3987 11.9775C24.5323 10.6625 15.4208 10.6988 10.6177 11.9386C10.1116 12.0803 9.65101 12.3478 9.28017 12.7152C8.90932 13.0826 8.64069 13.5377 8.50004 14.0367C8.0048 15.8847 8 19.7176 8 19.7176C8 19.7176 7.99521 23.5694 8.48685 25.3985C8.76266 26.4098 9.57208 27.2088 10.6009 27.4814C15.4363 28.7748 24.5363 28.7696 29.3807 27.5215C29.8874 27.3862 30.3493 27.1231 30.7209 26.7582C31.0926 26.3933 31.361 25.9393 31.4996 25.441C31.9961 23.5942 31.9998 19.7176 31.9998 19.7176C31.9998 19.7176 32.0236 15.9095 31.5116 14.0615Z" stroke="black" stroke-width="2"/>
<path d="M16.7275 23.2135V16.241C16.7275 15.3841 17.67 14.8618 18.3966 15.3159L23.9747 18.8022C24.6583 19.2294 24.6583 20.2251 23.9747 20.6523L18.3966 24.1386C17.67 24.5927 16.7275 24.0704 16.7275 23.2135Z" stroke="black" stroke-width="2" stroke-miterlimit="10" stroke-linecap="round" stroke-linejoin="round"/>
</svg>
